<?xml version="1.0" encoding="UTF-8"?>
<svg width="16px" height="16px" viewBox="0 0 16 16" version="1.1" xmlns="http://www.w3.org/2000/svg" xmlns:xlink="http://www.w3.org/1999/xlink">
    <title>37B1E107-2DDB-4A7D-842F-9A4A087FB8B3@2x</title>
    <g id="Page-1" stroke="none" stroke-width="1" fill="none" fill-rule="evenodd">
        <g id="TypeDB_Studio_Vaticle_Purple_2_new_version" transform="translate(-13.000000, -7.000000)">
            <g id="database" transform="translate(13.000000, 7.000000)">
                <rect id="Rectangle" x="0" y="0" width="16" height="16"></rect>
                <path d="M7.5,5 C9.9825,5 12,4.325 12,3.5 C12,2.675 9.9825,2 7.5,2 C5.01,2 3,2.675 3,3.5 C3,4.325 5.01,5 7.5,5 Z M3,4.64 L3,8 C3,8.825 5.0175,9.5 7.5,9.5 C9.9825,9.5 12,8.825 12,8 L12,4.64 C11.085,5.3 9.42,5.75 7.5,5.75 C5.58,5.75 3.915,5.3 3,4.64 Z M3,9.14 L3,12.5 C3,13.325 5.0175,14 7.5,14 C9.9825,14 12,13.325 12,12.5 L12,9.14 C11.085,9.8 9.42,10.25 7.5,10.25 C5.58,10.25 3.915,9.8 3,9.14 Z" id="Shape" fill="#888DCA" fill-rule="nonzero"></path>
            </g>
        </g>
    </g>
</svg>