<svg xmlns="http://www.w3.org/2000/svg" version="1.1" xmlns:xlink="http://www.w3.org/1999/xlink" xmlns:svgjs="http://svgjs.dev/svgjs" viewBox="0 0 800 800" opacity="0.49"><defs><linearGradient x1="50%" y1="0%" x2="50%" y2="100%" id="gggyrate-grad"><stop stop-color="#AC79EE" stop-opacity="1" offset="0%"></stop><stop stop-color="#03D0BF" stop-opacity="1" offset="100%"></stop></linearGradient></defs><g stroke-width="5" stroke="url(#gggyrate-grad)" fill="none"><path d="M382.021818522648 94.6479776184708C389.38610290186466 79.76394899231164 410.61389709813534 79.76394899231164 417.978181477352 94.6479776184708L711.3936373069539 687.5593760395408C717.990652016426 700.8913134056609 708.2919622040971 716.5150301121295 693.4154558296021 716.5150301121295H106.58454417039786C91.7080377959029 716.5150301121295 82.00934798357417 700.8913134056609 88.60636269304592 687.5593760395408L382.021818522648 94.6479776184708Z " transform="rotate(38, 400, 400)" opacity="0.05"></path><path d="M382.96800808282524 110.71913990355952C389.9446985473462 96.61848120509293 410.05524041749754 96.61848120509293 417.0319308820185 110.71913990355952L695.0044679837466 672.4246752498364C701.2542713927202 685.0549317019501 692.066038938935 699.8563475291309 677.9725065841502 699.8563475291309H122.02743238069354C107.93390002590883 699.8563475291309 98.7456675721237 685.0549317019501 104.99547098109696 672.4246752498364L382.96800808282524 110.71913990355952Z " transform="rotate(36, 400, 400)" opacity="0.10"></path><path d="M383.9142281605807 126.79027167107012C390.503324710406 113.4729829002961 409.49661425443776 113.4729829002961 416.08571080426304 126.79027167107012L678.6153291781176 657.2899439425539C684.5179212865925 669.2185194806613 675.8401461913508 683.1976344285542 662.5295878562764 683.1976344285542H137.47035110856734C124.15979277349288 683.1976344285542 115.4820176782514 669.2185194806613 121.38460978672612 657.2899439425539L383.9142281605807 126.79027167107012Z " transform="rotate(34, 400, 400)" opacity="0.16"></path><path d="M384.8604787559141 142.8614339561588C391.0619813910439 130.3275151130774 408.9380186089561 130.3275151130774 415.1395212440859 142.8614339561588L662.2262208900665 642.1552431528494C667.7816016980429 653.3821377769505 659.6142839613449 666.5389518455556 647.0866996459807 666.5389518455556H152.91330035401927C140.38571603865506 666.5389518455556 132.21839830195717 653.3821377769505 137.7737791099334 642.1552431528494L384.8604787559141 142.8614339561588Z " transform="rotate(32, 400, 400)" opacity="0.21"></path><path d="M385.8066988336695 158.9326115000366C391.6206075541036 147.18206258464775 408.3793924458964 147.18206258464775 414.19330116633046 158.9326115000366L645.8370820844373 627.020557621934C651.0452515919153 637.5457713320288 643.3883912137609 649.8802845213461 631.6437809181069 649.8802845213461H168.35621908189307C156.61160878623912 649.8802845213461 148.95474840808487 637.5457713320288 154.16291791556256 627.020557621934L385.8066988336695 158.9326115000366Z " transform="rotate(30, 400, 400)" opacity="0.26"></path><path d="M386.7529036526358 175.0037737851253C392.1792184583743 164.03659479742905 407.8207510240476 164.03659479742905 413.24706582978615 175.0037737851253L629.4479280200192 611.8858568322296C634.3088862269985 621.7093896283179 627.1624832073877 633.2216019383475 616.2008469314441 633.2216019383475H183.7991225509778C172.8374862750341 633.2216019383475 165.69108325542345 621.7093896283179 170.55204146240266 611.8858568322296L386.7529036526358 175.0037737851253Z " transform="rotate(28, 400, 400)" opacity="0.31"></path><path d="M387.69913898918026 191.074936070214C392.73785988022314 180.89112701021037 407.26214011977686 180.89112701021037 412.30086101081974 191.074936070214L613.0588044731791 596.751156042525C617.5725513796599 605.8730079246072 610.9366057185928 616.5629193553489 600.7579434623593 616.5629193553489H199.24205653764068C189.06339428140723 616.5629193553489 182.42744862034021 605.8730079246072 186.94119552682088 596.751156042525L387.69913898918026 191.074936070214Z " transform="rotate(26, 400, 400)" opacity="0.37"></path><path d="M388.6453590669356 207.1460983553027C393.2964860432829 197.74565922299166 406.7035139567171 197.74565922299166 411.3546409330644 207.1460983553027L596.6696656675499 581.6164552528207C600.8362012735322 590.0366262208966 594.7107129710087 599.9042367723503 585.3150247344856 599.9042367723503H214.68497526551442C205.28928702899134 599.9042367723503 199.16379872646786 590.0366262208966 203.33033433245004 581.6164552528207L388.6453590669356 207.1460983553027Z " transform="rotate(24, 400, 400)" opacity="0.42"></path><path d="M389.59157914469097 223.2172606403914C393.8551122063427 214.60019143577296 406.1448877936573 214.60019143577296 410.40842085530903 223.2172606403914L580.2805268619207 566.4817544631162C584.0998511674045 574.2002445171856 578.4848202234247 583.2455541893517 569.8721060066117 583.2455541893517H230.12789399338823C221.5151797765754 583.2455541893517 215.90014883259556 574.2002445171856 219.7194731380792 566.4817544631162L389.59157914469097 223.2172606403914Z " transform="rotate(22, 400, 400)" opacity="0.47"></path><path d="M390.5377992224463 239.288392407902C394.41373836940244 231.45469313097612 405.58626163059756 231.45469313097612 409.4622007775537 239.288392407902L563.8913880562916 551.3470231558337C567.3635010612768 558.3638322958968 562.2589274758407 566.5868410887749 554.429187278738 566.5868410887749H245.57081272126203C237.74107252415945 566.5868410887749 232.6364989387232 558.3638322958968 236.10861194370835 551.3470231558337L390.5377992224463 239.288392407902Z " transform="rotate(20, 400, 400)" opacity="0.53"></path><path d="M391.4840193002017 255.3595546929907C394.97236453246217 248.30922534375742 405.02763546753783 248.30922534375742 408.5159806997983 255.3595546929907L547.5022492506623 536.2123223661291C550.6271509551491 542.5274505921859 546.0330347282566 549.9281585057763 538.9862685508642 549.9281585057763H261.01373144913583C253.9669652717435 549.9281585057763 249.3728490448509 542.5274505921859 252.4977507493375 536.2123223661291L391.4840193002017 255.3595546929907Z " transform="rotate(18, 400, 400)" opacity="0.58"></path><path d="M392.43023937795704 271.43071697807943C395.53099069552195 265.1637575565387 404.46900930447805 265.1637575565387 407.56976062204296 271.43071697807943L531.1131104450333 521.0776215764247C533.8908008490214 526.6910688884752 529.8071419806724 533.2694759227778 523.5433498229904 533.2694759227778H276.45665017700964C270.19285801932756 533.2694759227778 266.1091991509786 526.6910688884752 268.8868895549667 521.0776215764247L392.43023937795704 271.43071697807943Z " transform="rotate(16, 400, 400)" opacity="0.63"></path><path d="M393.3764594557124 287.50188689256265C396.0896168585817 282.01829739871454 403.9103831414183 282.01829739871454 406.6235405442876 287.50188689256265L514.7239716394041 505.9429284161148C517.1544507428938 510.85469481415896 513.5812492330883 516.6108009691737 508.10043109511656 516.6108009691737H291.89956890488344C286.4187507669116 516.6108009691737 282.84554925710626 510.85469481415896 285.27602836059583 505.9429284161148L393.3764594557124 287.50188689256265Z " transform="rotate(14, 400, 400)" opacity="0.68"></path><path d="M394.3226795334678 303.5730568070459C396.64824302164146 298.87283724089036 403.35175697835854 298.87283724089036 405.6773204665322 303.5730568070459L498.33483283377495 490.8082352558049C500.4181006367661 495.0183207398428 497.35535648550433 499.95212601556966 492.6575123672428 499.95212601556966H307.34248763275724C302.64464351449567 499.95212601556966 299.58189936323396 495.0183207398428 301.66516716622505 490.8082352558049L394.3226795334678 303.5730568070459Z " transform="rotate(12, 400, 400)" opacity="0.74"></path><path d="M395.26889961122316 319.64419620395097C397.2068691847012 315.72734656548806 402.7931308152988 315.72734656548806 404.73110038877684 319.64419620395097L481.9456940281458 475.6735115779168C483.6817505306384 479.1819161479484 481.12946373792033 483.29342054438746 477.214593639369 483.29342054438746H322.78540636063104C318.8705362620797 483.29342054438746 316.3182494693616 479.1819161479484 318.0543059718542 475.6735115779168L395.26889961122316 319.64419620395097Z " transform="rotate(10, 400, 400)" opacity="0.79"></path><path d="M396.2151196889785 335.7153584890397C397.765495347761 332.58187877826936 402.234504652239 332.58187877826936 403.7848803110215 335.7153584890397L465.55655522251664 460.53881078821234C466.9454004245107 463.3455344442376 464.9035709903362 466.6347379613889 461.7716749114952 466.6347379613889H338.2283250885048C335.0964290096638 466.6347379613889 333.0545995754893 463.3455344442376 334.44344477748336 460.53881078821234L396.2151196889785 335.7153584890397Z " transform="rotate(8, 400, 400)" opacity="0.84"></path><path d="M397.1613397667339 351.78652840352294C398.3241215108207 349.4364186204452 401.6758784891793 349.4364186204452 402.8386602332661 351.78652840352294L449.1674164168875 445.40411762790245C450.20905031838305 447.5091603699214 448.67767824275217 449.97606300778483 446.3287561836214 449.97606300778483H353.6712438163786C351.32232175724783 449.97606300778483 349.79094968161695 447.5091603699214 350.8325835831125 445.40411762790245L397.1613397667339 351.78652840352294Z " transform="rotate(6, 400, 400)" opacity="0.89"></path><path d="M398.1075598444893 367.8576906886117C398.8827476738805 366.2909508332265 401.1172523261195 366.2909508332265 401.8924401555107 367.8576906886117L432.7782776112583 430.26941683819797C433.47270021225535 431.6727786662106 432.4517854951681 433.3173804247863 430.8858374557476 433.3173804247863H369.1141625442524C367.5482145048319 433.3173804247863 366.52729978774465 431.6727786662106 367.2217223887417 430.26941683819797L398.1075598444893 367.8576906886117Z " transform="rotate(4, 400, 400)" opacity="0.95"></path><path d="M399.05377992224464 383.9288377149113C399.4413738369402 383.1454677872187 400.5586261630598 383.1454677872187 400.94622007775536 383.9288377149113L416.38913880562916 415.1347007897045C416.7363501061277 415.8363817037108 416.22589274758406 416.6586825829986 415.4429187278738 416.6586825829986H384.5570812721262C383.77410725241594 416.6586825829986 383.2636498938723 415.8363817037108 383.61086119437084 415.1347007897045L399.05377992224464 383.9288377149113Z " transform="rotate(2, 400, 400)" opacity="1.00"></path></g></svg>